HIERARCHY
ROOT Hips
{
     OFFSET 1.88212 96.90440 -13.34250
     CHANNELS 6 Xposition Yposition Zposition Zrotation Xrotation Yrotation
     JOINT Spine
     {
          OFFSET 0.00000 11.89050 0.00000
          CHANNELS 3 Zrotation Xrotation Yrotation
          JOINT Spine1
          {
               OFFSET -0.00000 25.65740 0.12766
               CHANNELS 3 Zrotation Xrotation Yrotation
               JOINT HEad
               {
                    OFFSET 0.00000 8.73416 0.01134
                    CHANNELS 3 Zrotation Xrotation Yrotation
                    End Site
                    {
                         OFFSET -0.29000 12.77420 2.51395
                    }
               }
               JOINT LeftShoulder1
               {
                    OFFSET 8.99000 -0.36225 -0.22000
                    CHANNELS 3 Zrotation Xrotation Yrotation
                    JOINT LeftArm
                    {
                         OFFSET 10.28270 -0.00338 0.32212
                         CHANNELS 3 Zrotation Xrotation Yrotation
                         JOINT LeftForeArm
                         {
                              OFFSET 32.76690 0.09914 -1.42434
                              CHANNELS 3 Zrotation Xrotation Yrotation
                              JOINT LeftHand
                              {
                                   OFFSET 27.56430 0.08536 1.02216
                                   CHANNELS 3 Zrotation Xrotation Yrotation
                                   End Site
                                   {
                                        OFFSET 16.74430 -0.60000 1.50291
                                   }
                              }
                         }
                    }
               }
               JOINT RightShoulder
               {
                    OFFSET -8.99000 -0.36225 -0.22000
                    CHANNELS 3 Zrotation Xrotation Yrotation
                    JOINT RightArm
                    {
                         OFFSET -10.28270 -0.00338 0.32212
                         CHANNELS 3 Zrotation Xrotation Yrotation
                         JOINT RightForeArm
                         {
                              OFFSET -32.89710 0.09914 -1.42434
                              CHANNELS 3 Zrotation Xrotation Yrotation
                              JOINT RightHand
                              {
                                   OFFSET -27.49210 0.08536 1.02216
                                   CHANNELS 3 Zrotation Xrotation Yrotation
                                   End Site
                                   {
                                        OFFSET -16.63120 -0.60000 1.50291
                                   }
                              }
                         }
                    }
               }
          }
     }
     JOINT LeftUpLeg
     {
          OFFSET 8.94580 -8.66707 0.10165
          CHANNELS 3 Zrotation Xrotation Yrotation
          JOINT LeftLeg
          {
               OFFSET 0.00000 -44.42270 1.37270
               CHANNELS 3 Zrotation Xrotation Yrotation
               JOINT LeftFoot
               {
                    OFFSET -0.25355 -42.09240 -1.46059
                    CHANNELS 3 Zrotation Xrotation Yrotation
                    JOINT LeftToes
                    {
                         OFFSET -0.04000 -4.41509 8.49910
                         CHANNELS 3 Zrotation Xrotation Yrotation
                         End Site
                         {
                              OFFSET 0.08000 -0.04745 9.77979
                         }
                    }
               }
          }
     }
     JOINT RightUpLeg
     {
          OFFSET -8.94580 -8.66707 0.10165
          CHANNELS 3 Zrotation Xrotation Yrotation
          JOINT RightLeg
          {
               OFFSET 0.00000 -44.42270 1.37270
               CHANNELS 3 Zrotation Xrotation Yrotation
               JOINT RightFoot
               {
                    OFFSET 0.25355 -42.09240 -1.46059
                    CHANNELS 3 Zrotation Xrotation Yrotation
                    JOINT RightToes
                    {
                         OFFSET 0.04000 -4.41509 8.49910
                         CHANNELS 3 Zrotation Xrotation Yrotation
                         End Site
                         {
                              OFFSET -0.08000 -0.13745 9.77979
                         }
                    }
               }
          }
     }
}
MOTION
Frames: 12
Frame Time: 0.01667
-82.68065 94.03708 -181.42145 4.53134 -8.81836 8.90641 5.66833 19.22284 5.92702 0.02154 -0.01000 -0.00792 -31.15730 22.46377 29.88706 13.30710 -3.39774 4.21389 9.72813 -75.28799 30.95310 -36.67997 45.42767 -103.82880 5.62762 8.01707 1.54456 34.74058 1.19001 11.03596 33.10643 -14.89568 56.95692 21.76786 36.61066 106.61591 -5.55411 15.12589 -1.27823 16.45421 -17.77076 6.54495 3.07235 23.87366 5.23570 -11.18074 -0.03816 -0.04268 -14.35756 -7.70815 -2.85483 -29.51189 -13.14193 -16.43585 -39.37084 56.10804 67.26618 13.81129 -0.31971 -0.02979 2.91636 -41.10318 -25.05808 
-85.31111 93.37730 -182.76706 4.73315 -7.61837 9.87031 4.62058 18.46424 6.94175 0.01758 -0.00621 -0.00789 -32.28544 21.87968 29.33938 13.41529 -3.45439 3.39873 10.48183 -74.70225 32.34907 -37.75592 45.08659 -102.85371 5.02214 8.32197 -3.78826 34.42549 0.75112 10.37247 35.70614 -12.60549 58.52555 21.82484 36.12953 105.84768 -4.79018 16.34400 -2.08086 18.38020 -20.05828 7.29126 0.26570 24.10777 5.94415 -6.86174 -0.02715 -0.03654 -17.45690 -7.22421 -3.72044 -29.51835 -9.19410 -12.84299 -26.72269 51.39177 56.77224 12.21606 -0.06765 0.01878 -8.87375 -48.82586 -31.26574 
-87.85656 92.79123 -184.09448 4.75476 -6.44199 10.70013 3.96149 17.67155 7.80284 0.01381 -0.00290 -0.00867 -32.32240 20.29425 29.42841 13.25944 -3.22821 2.49866 12.19459 -74.70273 34.55211 -38.61349 44.97021 -102.36619 5.51728 8.95193 -1.56037 33.66784 0.54132 9.57703 38.02368 -11.26292 60.05445 21.92221 35.78370 105.25961 -4.37120 16.57522 -2.64346 20.16705 -22.05731 8.15510 -2.04491 23.98491 6.28625 -2.69586 -0.01341 -0.03594 -20.05145 -6.33810 -4.35017 -28.96058 -4.89511 -8.59669 -15.75477 45.50315 45.35249 12.55633 -0.10731 -0.03536 -5.32324 -42.62012 -31.82245 
-90.31003 92.26974 -185.33862 4.64065 -5.35343 11.41116 3.62589 16.91824 8.50849 0.01040 -0.00071 -0.01025 -32.36254 18.78381 29.57434 12.84867 -2.76925 1.55451 14.70367 -75.15137 37.55902 -39.33414 45.14799 -102.22011 5.21914 8.67193 -4.11653 32.69270 0.56145 8.64145 40.09327 -10.41699 61.65029 22.00569 35.58978 104.70766 -4.04656 16.53859 -2.99857 21.78945 -23.73220 9.07158 -3.75126 23.51750 6.15896 1.17664 -0.00009 -0.03730 -22.37756 -5.60310 -4.94432 -27.99189 -0.38279 -3.77364 -7.35588 38.42449 34.12112 10.76660 -0.08914 0.02427 -17.74296 -51.70074 -27.41247 
-92.66945 91.79742 -186.47299 4.41214 -4.41443 12.02338 3.57289 16.26057 9.05426 0.00782 0.00114 -0.01173 -32.41083 17.36926 29.82481 12.25935 -2.08831 0.61704 17.77894 -75.96315 41.25305 -40.02675 45.59499 -102.14251 5.56983 8.58604 -2.40837 31.70848 0.82316 7.55422 41.86081 -9.84853 63.32325 22.06602 35.53844 104.15210 -4.00180 16.22454 -3.27081 23.20877 -25.05950 9.95712 -4.79594 22.76278 5.52160 4.66094 0.01102 -0.03779 -24.15199 -4.34972 -5.35769 -26.55256 4.11818 1.48804 -1.84194 30.52355 23.54793 10.97236 -0.09625 -0.03191 -10.46401 -42.84033 -26.94621 
-94.93702 91.38252 -187.47794 4.15099 -3.70455 12.56789 3.71232 15.75846 9.42886 0.00561 0.00109 -0.01301 -32.46892 16.09996 30.21470 11.53072 -1.34608 -0.22957 21.09687 -76.91361 45.29957 -40.79740 46.30821 -102.10329 5.37990 8.14706 -3.76781 30.88518 1.21432 6.48397 43.23702 -9.45696 64.78271 22.08679 35.59477 103.68236 -4.10671 15.85011 -3.33698 24.21780 -26.06539 10.66730 -4.09118 22.37399 2.12315 6.66162 0.04796 -0.00687 -12.26989 4.98367 -11.33215 -25.54281 8.13879 6.30897 2.57021 24.52244 13.47921 7.66772 -0.16615 0.05255 -10.33004 -44.86794 -22.07586 
-97.06293 90.99158 -188.32199 3.87279 -3.23041 13.06837 4.01371 15.40214 9.61499 0.00409 0.00171 -0.01402 -32.56401 15.04329 30.77797 10.80427 -0.56435 -1.05012 24.72777 -77.95237 49.78829 -41.64054 47.17488 -101.93826 5.60391 8.11452 -2.71237 30.05417 1.66823 5.42625 44.50809 -9.11351 66.04797 22.08171 35.69628 103.24313 -4.39219 15.39879 -3.35567 24.80765 -26.74985 11.14966 -3.28620 21.55019 -1.02747 8.69168 0.05068 -0.02695 -23.35325 1.66571 -5.23924 -24.88823 11.59841 10.72328 6.58907 19.50090 4.47734 7.51459 -0.12803 -0.00026 -9.01234 -42.73584 -18.46221 
-99.00301 90.63190 -189.00082 3.58404 -2.99027 13.54600 4.47459 15.15308 9.61056 0.00336 0.00064 -0.01346 -32.70743 14.28018 31.52047 10.19376 0.09219 -1.68270 27.63785 -78.99136 53.61069 -42.59704 48.10018 -101.59978 5.39402 8.05088 -3.61891 29.41057 2.06069 4.52131 45.53885 -8.74592 66.93427 22.03917 35.80515 102.83206 -4.74482 14.95784 -3.11494 25.01903 -27.09548 11.39815 -2.36084 20.51395 -3.87404 10.63165 0.04320 -0.02836 -24.40918 4.62800 -4.13863 -24.50974 14.50262 14.73093 10.19590 15.03595 -2.94636 4.71346 -0.17979 0.03136 -7.96233 -43.64522 -14.09956 
-100.80653 90.41306 -189.59700 3.28571 -2.95183 13.99313 5.03678 14.98166 9.45346 0.00004 0.00093 -0.01272 -32.80569 13.77316 32.38843 9.48902 0.77552 -2.15637 29.84127 -80.15165 56.48253 -43.55002 48.94355 -101.07948 5.42807 8.15115 -2.87125 28.75342 2.53579 3.73525 46.55995 -8.38051 67.60722 21.94189 35.90739 102.43030 -4.91888 14.41405 -3.11459 24.97196 -27.11348 11.46197 -1.42550 19.42058 -6.26833 12.51382 0.03461 -0.02517 -28.91358 4.53790 -0.17276 -23.62167 16.15349 17.53811 12.63231 12.05876 -7.92839 4.41931 -0.13881 0.01845 -8.95501 -43.53864 -11.60642 
-102.44833 90.33056 -190.11169 2.96744 -3.07215 14.37398 5.65219 14.85432 9.21286 -0.00261 0.00108 -0.01122 -32.85236 13.53642 33.34261 8.72413 1.41830 -2.43489 30.61806 -81.38335 57.67472 -44.43300 49.64593 -100.44197 5.24544 8.30625 -3.27436 28.13229 3.03832 3.15010 47.47327 -8.05616 68.00809 21.79371 35.99397 102.00848 -4.96997 14.03804 -3.01906 24.87743 -26.99618 11.49822 -1.04501 20.00440 -6.93963 15.01408 0.00368 0.00536 -30.71578 3.93968 0.72890 -22.29410 16.91755 19.17889 13.34512 8.72301 -10.84412 2.53293 -0.12889 0.05944 -8.17982 -42.19009 -9.42587 
-103.91340 90.42274 -190.55362 2.63257 -3.30874 14.66119 6.27234 14.75338 8.93698 -0.00450 0.00157 -0.01027 -32.86587 13.57039 34.35940 7.94405 2.02620 -2.61301 30.22334 -82.59302 57.47801 -45.13742 50.13213 -99.80229 5.29288 8.74984 -2.72554 27.48178 3.53305 2.67809 48.29699 -7.71419 68.29270 21.60275 36.03955 101.54983 -4.83248 13.73114 -2.94364 24.86049 -26.89867 11.63132 -1.05558 21.43064 -5.94321 17.83063 -0.02377 0.03455 -32.82056 7.94847 16.20910 -20.60524 17.00389 19.71716 13.11592 7.73898 -11.34792 4.50614 -0.13864 0.01355 -10.64592 -40.64251 -9.24172 
-105.17690 90.67681 -190.89328 2.29685 -3.63077 14.85641 6.85942 14.66679 8.64859 -0.00552 0.00180 -0.00902 -32.88374 13.87739 35.40881 7.16822 2.57467 -2.65651 28.50271 -83.73591 55.78305 -45.69611 50.44345 -99.20121 5.20229 9.06124 -2.83089 26.72907 4.01001 2.35923 49.05313 -7.38470 68.46951 21.37687 36.04316 101.08264 -4.68203 13.39081 -2.77734 24.96726 -26.89680 11.91117 -1.40927 23.39737 -3.72257 20.78554 -0.04635 0.06039 -33.57028 5.65475 6.45067 -18.67108 16.41526 19.24543 12.63261 10.43109 -10.52548 3.22395 -0.02546 -0.02662 -9.41849 -41.45562 -9.84819 
